<?xml version="1.0" encoding="UTF-8"?>
<svg id="LOGO簡易版" xmlns="http://www.w3.org/2000/svg" viewBox="0 0 410.79 282.43">
  <defs>
    <style>
      .cls-1 {
        fill: #8e8e8e;
      }
    </style>
  </defs>
  <g>
    <path class="cls-1" d="M99.83.03l-.55.02C44.54.43,0,45.35,0,100.18s44.86,100.14,100.01,100.14h18.55v-41.71c-4.09.87-8.28,1.32-12.45,1.32-32.91,0-59.69-26.8-59.69-59.75s26.78-59.77,59.69-59.77c4.12,0,8.31.45,12.45,1.32V.03h-18.73Z"/>
    <path class="cls-1" d="M127.54,200.33h45.96v-114.35l71.88,100.4v-85.88L174.03,0h-46.48v44.7c22.8,9.14,37.5,30.87,37.5,55.49s-14.7,46.33-37.5,55.48v44.66Z"/>
    <path class="cls-1" d="M309.31,200.33h101.43v-43.91L300.85,0h-46.49v200.33h45.98v-114.37l49.46,69.87h-40.48v44.5Z"/>
    <path class="cls-1" d="M106.42,49.36c-28.11,0-50.99,22.9-50.99,51.06s22.88,51.06,50.99,51.06,50.98-22.91,50.98-51.06-22.87-51.06-50.98-51.06ZM127.11,136.15c-1.72,2.09-4.57,5.18-7.43,3.35-1.29-.69-2.29-1.81-3.57-2.51-1.44-.97-3.14-1.54-4.86-1.68-3.86-.28-8,.71-11.58-.98-2.86-1.25-5.28-4.34-4.86-7.55.44-2.79,3.58-4.33,5.86-5.45,3-1.53,6.15-3.21,9.44-3.78,0,0,3.6-.88,4.56-.55,1.23.4,2.72.27,3.86.97,1,.57,1.58,1.54,2.29,2.38.85,1.26,1.85,2.39,3,3.36,1.42,1.12,2.99,2.09,4.27,3.49,1.01,1.12,1.58,2.52,1.43,4.07-.28,1.82-1.43,3.49-2.43,4.89ZM106.42,57.41c8.84,0,17.06,2.69,23.89,7.3-3.03.46-8.85,1.14-12.56,4.52-1.53,1.4-3.89,6.35-5.54,7.37-1.65,1.17-3.45,2.33-5.56,2.64-1.5.14-2.7-.44-3.74-1.47-.76-.88-1.36-2.19-2.4-2.94-.91-.6-1.35.45-1.65,1.17-.9,2.8-.47,6.18-2.4,8.82-.91,1.18-2.41,2.2-3.61,3.09-.89.67-1.91,1.18-2.77,1.92-.8.68-1.29,1.54-1.06,2.61.21,1.11.26,2.27.73,3.32.36.78.77,1.6.64,2.48-.23,1.5-1.57,2.56-1.19,4.19,1.02,4.61,5.12,7.72,9.56,8.98,1.38.39,2.35.92,2.58,2.82.21,1.77-2.82,2.3-4.04,2.35-5.45.22-9.99-2.38-13.75-6.06-1.72-1.68-3.54-3.25-5.22-4.97-.75-.72-1.45-1.59-1.68-2.63-.24-1.15.27-2.2.59-3.26.38-1.32.63-2.75.35-4.11-.12-.61-.33-1.19-.53-1.77-.19-.53-.39-1.08-.75-1.53-.35-.38-.85-.61-1.39-.54-.06,0-.11,0-.17.02-.63.13-1.12.56-1.68.84-.44.22-.92.37-1.41.49-1.18.28-2.41.34-3.61.3-1.21-.02-2.41-.3-3.6-.45-.11-.01-.17-.07-.27-.09,3.6-20.09,21.14-35.41,42.23-35.41Z"/>
  </g>
  <g>
    <path class="cls-1" d="M94.59,227.74v34.95h-7.47v-3.95h-20.01v23.25h-7.47v-23.25h-19.94v4.31h-7.16v-35.32h27.1v-12.72h7.47v12.72h27.48ZM59.64,252.09v-17.7h-19.94v17.7h19.94ZM87.12,252.09v-17.7h-20.01v17.7h20.01Z"/>
    <path class="cls-1" d="M175.81,248.65v6.65h-31.94c-3.54,10.89-12.24,20.69-32.87,26.76-.69-1.68-2.62-4.53-3.93-5.92,17.17-4.83,25.17-12.43,28.79-20.84h-28.33v-6.65h8.31v-23.91h22.94v-9.72h7.24v9.72h22.48v23.91h7.31ZM137.87,248.65c.69-3.44.92-6.88.92-10.31v-6.95h-15.78v17.26h14.86ZM148.49,257.43c8.62,5.56,20.86,13.82,26.79,18.94l-5.16,5.56c-5.69-5.26-17.55-13.89-26.4-19.74l4.77-4.75ZM146.03,238.42c0,3.43-.15,6.87-.69,10.24h15.63v-17.26h-14.93v7.02Z"/>
    <path class="cls-1" d="M204.23,249.38c-1.39,6.51-3.54,13.38-6.24,18.86,1.46.73,3.08,1.97,5.54,3.43,5.39,3.07,12.39,3.51,21.48,3.51s22.32-.66,30.79-1.68c-.77,1.83-1.93,5.19-2.08,7.02-5.93.36-20.09.8-29.02.8-10.16,0-16.78-.8-22.32-3.87-3.08-1.68-5.93-4.24-7.54-4.24-1.77,0-4.39,4.75-6.47,9.21l-4.85-6.29c2.62-3.29,5.31-6.14,7.78-7.6,2-3.95,3.85-9.21,5-14.18h-9.85c1.93-4.32,4.16-10.24,6.08-15.94h-7.77v-6.14h16.62c-1.69,5.19-3.85,11.11-5.69,16.23h4.23l1.08-.29,3.23,1.17ZM192.76,229.2c-.85-3.22-2.77-8.41-4-12.28l6.31-1.76c1.39,3.8,3.23,8.7,4.23,11.85l-6.54,2.19ZM215.78,270.59h-6.7v-37.51h19.71c-4-1.83-8.7-3.8-12.63-5.19l4.62-3.66c3,.95,6.54,2.27,9.93,3.73,2.92-1.46,5.93-3.22,8.39-4.97h-29.71v-5.34h36.41l1.39-.37,4.31,3.29c-3.93,3.58-9.24,7.16-14.7,9.94,2.08.88,3.85,1.76,5.31,2.56h9.47v31.22c0,3.07-.62,4.61-2.77,5.48-2.23.95-5.47,1.02-10.32,1.02-.23-1.68-1.08-3.95-1.93-5.48,3.16.15,6.16.07,7.01.07.92,0,1.23-.29,1.23-1.17v-5.19h-11.47v11.26h-6.47v-11.26h-11.08v11.55ZM215.78,238.2v5.26h11.08v-5.26h-11.08ZM226.86,253.92v-5.48h-11.08v5.48h11.08ZM244.8,238.2h-11.47v5.26h11.47v-5.26ZM244.8,253.92v-5.48h-11.47v5.48h11.47Z"/>
    <path class="cls-1" d="M290.46,232.57h-27.64v-5.41h13.09c-1.15-2.71-3.31-6.88-5.23-9.87l5.16-2.71c1.92,3.07,4.23,6.95,5.31,9.58l-5.08,3h14.4v5.41ZM265.91,242.22v-5.34h21.78v5.34h-21.78ZM265.91,246.53h21.86v5.27h-21.86v-5.27ZM287.77,277.83h-16.24v3.29h-5.62v-24.71h21.86v21.42ZM271.53,261.89v10.46h10.55v-10.46h-10.55ZM325.25,218.89c-.54,27.05-.62,54.26,3,55.28.46.15,1-4.61,1.23-9.51,1.08,1.68,2.85,4.17,3.93,5.19-.92,10.38-4.08,12.72-8.08,11.11-7.47-2.48-7.31-26.98-7.23-55.64h-11.39v20.62h9.01v6.29h-9.01v29.83h-6.7v-29.83h-9.54v-6.29h9.54v-20.62h-8.62v-6.43h33.87Z"/>
    <path class="cls-1" d="M365.84,260.13c-1.46-2.05-4.39-5.34-7-8.19v30.05h-6.93v-28.37c-3.15,2.92-6.54,5.48-9.77,7.46-.54-1.83-2.08-5.41-3-6.73,8.08-4.46,16.24-12.43,21.17-20.91h-19.01v-6.14h14.55c-1.39-2.71-4.31-6.8-6.93-9.58l5.54-3c2.85,2.85,5.93,6.73,7.24,9.36l-5.54,3.22h7.93l1.23-.29,3.85,2.56c-2.23,5.41-5.46,10.6-9.16,15.36,3.08,2.63,8.77,8.04,10.32,9.58l-4.47,5.63ZM410.79,272.78v6.65h-43.95v-6.65h19.4v-29.03h-15.93v-6.51h15.93v-22.23h7.31v22.23h15.55v6.51h-15.55v29.03h17.24Z"/>
  </g>
</svg>