<svg width="185" height="56" viewBox="0 0 185 56" fill="none" xmlns="http://www.w3.org/2000/svg">
<rect width="185" height="56" fill="#004E98"/>
<path d="M33.548 43V39.94C35.972 37.78 38.036 35.776 39.74 33.928C41.468 32.08 42.788 30.364 43.7 28.78C44.612 27.172 45.068 25.684 45.068 24.316C45.068 23.452 44.912 22.696 44.6 22.048C44.288 21.4 43.832 20.908 43.232 20.572C42.656 20.212 41.936 20.032 41.072 20.032C40.112 20.032 39.224 20.308 38.408 20.86C37.616 21.388 36.884 22.024 36.212 22.768L33.26 19.924C34.508 18.58 35.78 17.572 37.076 16.9C38.396 16.204 39.956 15.856 41.756 15.856C43.436 15.856 44.9 16.204 46.148 16.9C47.42 17.572 48.404 18.52 49.1 19.744C49.796 20.968 50.144 22.408 50.144 24.064C50.144 25.672 49.736 27.316 48.92 28.996C48.128 30.652 47.06 32.308 45.716 33.964C44.372 35.62 42.884 37.252 41.252 38.86C41.948 38.764 42.692 38.692 43.484 38.644C44.3 38.572 45.02 38.536 45.644 38.536H51.404V43H33.548ZM63.8544 43.504C62.0544 43.504 60.4704 42.988 59.1024 41.956C57.7584 40.9 56.7024 39.34 55.9344 37.276C55.1904 35.188 54.8184 32.608 54.8184 29.536C54.8184 26.488 55.1904 23.956 55.9344 21.94C56.7024 19.9 57.7584 18.376 59.1024 17.368C60.4704 16.36 62.0544 15.856 63.8544 15.856C65.6784 15.856 67.2624 16.372 68.6064 17.404C69.9504 18.412 70.9944 19.924 71.7384 21.94C72.5064 23.956 72.8904 26.488 72.8904 29.536C72.8904 32.608 72.5064 35.188 71.7384 37.276C70.9944 39.34 69.9504 40.9 68.6064 41.956C67.2624 42.988 65.6784 43.504 63.8544 43.504ZM63.8544 39.364C64.6464 39.364 65.3424 39.064 65.9424 38.464C66.5424 37.864 67.0104 36.856 67.3464 35.44C67.6824 34 67.8504 32.032 67.8504 29.536C67.8504 27.064 67.6824 25.132 67.3464 23.74C67.0104 22.324 66.5424 21.34 65.9424 20.788C65.3424 20.212 64.6464 19.924 63.8544 19.924C63.1104 19.924 62.4264 20.212 61.8024 20.788C61.2024 21.34 60.7224 22.324 60.3624 23.74C60.0024 25.132 59.8224 27.064 59.8224 29.536C59.8224 32.032 60.0024 34 60.3624 35.44C60.7224 36.856 61.2024 37.864 61.8024 38.464C62.4264 39.064 63.1104 39.364 63.8544 39.364ZM76.0168 43V39.94C78.4408 37.78 80.5048 35.776 82.2088 33.928C83.9368 32.08 85.2568 30.364 86.1688 28.78C87.0808 27.172 87.5368 25.684 87.5368 24.316C87.5368 23.452 87.3808 22.696 87.0688 22.048C86.7568 21.4 86.3008 20.908 85.7008 20.572C85.1248 20.212 84.4048 20.032 83.5408 20.032C82.5808 20.032 81.6928 20.308 80.8768 20.86C80.0848 21.388 79.3528 22.024 78.6808 22.768L75.7288 19.924C76.9768 18.58 78.2488 17.572 79.5448 16.9C80.8648 16.204 82.4248 15.856 84.2248 15.856C85.9048 15.856 87.3688 16.204 88.6168 16.9C89.8888 17.572 90.8728 18.52 91.5688 19.744C92.2648 20.968 92.6128 22.408 92.6128 24.064C92.6128 25.672 92.2048 27.316 91.3888 28.996C90.5968 30.652 89.5288 32.308 88.1848 33.964C86.8408 35.62 85.3528 37.252 83.7207 38.86C84.4168 38.764 85.1608 38.692 85.9528 38.644C86.7688 38.572 87.4888 38.536 88.1128 38.536H93.8728V43H76.0168ZM107.079 43.504C105.831 43.504 104.619 43.24 103.443 42.712C102.291 42.184 101.271 41.38 100.383 40.3C99.4951 39.196 98.7871 37.804 98.2591 36.124C97.7551 34.42 97.5031 32.392 97.5031 30.04C97.5031 27.568 97.7791 25.432 98.3311 23.632C98.9071 21.832 99.6751 20.368 100.635 19.24C101.595 18.088 102.687 17.236 103.911 16.684C105.159 16.132 106.467 15.856 107.835 15.856C109.467 15.856 110.871 16.156 112.047 16.756C113.247 17.332 114.243 18.04 115.035 18.88L112.227 22.048C111.771 21.52 111.171 21.064 110.427 20.68C109.683 20.296 108.927 20.104 108.159 20.104C107.079 20.104 106.095 20.416 105.207 21.04C104.343 21.664 103.647 22.696 103.119 24.136C102.591 25.576 102.327 27.544 102.327 30.04C102.327 32.344 102.531 34.192 102.939 35.584C103.371 36.952 103.935 37.948 104.631 38.572C105.327 39.196 106.107 39.508 106.971 39.508C107.643 39.508 108.243 39.328 108.771 38.968C109.323 38.584 109.767 38.032 110.103 37.312C110.439 36.568 110.607 35.656 110.607 34.576C110.607 33.52 110.439 32.656 110.103 31.984C109.791 31.312 109.347 30.808 108.771 30.472C108.219 30.136 107.559 29.968 106.791 29.968C106.071 29.968 105.315 30.196 104.523 30.652C103.731 31.084 102.999 31.852 102.327 32.956L102.075 29.392C102.555 28.72 103.119 28.144 103.767 27.664C104.439 27.184 105.123 26.824 105.819 26.584C106.539 26.344 107.187 26.224 107.763 26.224C109.251 26.224 110.571 26.524 111.723 27.124C112.899 27.724 113.811 28.636 114.459 29.86C115.107 31.084 115.431 32.656 115.431 34.576C115.431 36.4 115.047 37.984 114.279 39.328C113.535 40.648 112.527 41.68 111.255 42.424C109.983 43.144 108.591 43.504 107.079 43.504ZM125.866 12.256L130.294 13.408C129.646 15.184 128.878 16.924 127.99 18.628C127.126 20.332 126.178 21.916 125.146 23.38C124.138 24.82 123.094 26.08 122.014 27.16C121.726 26.92 121.354 26.62 120.898 26.26C120.442 25.876 119.974 25.516 119.494 25.18C119.038 24.844 118.63 24.568 118.27 24.352C119.374 23.416 120.406 22.312 121.366 21.04C122.326 19.744 123.19 18.352 123.958 16.864C124.726 15.352 125.362 13.816 125.866 12.256ZM126.658 16.36H149.554V20.536H124.57L126.658 16.36ZM124.102 24.892H148.69V28.924H128.422V36.484H124.102V24.892ZM118.378 34.36H151.498V38.5H118.378V34.36ZM134.686 18.52H139.15V46.24H134.686V18.52Z" fill="white"/>
</svg>
